# xmcd
#
# Track frame offsets: 
#        150
#        10754
#        24026
#        42323
#        57929
#        66934
#        82592
#        96524
#        110045
#        121436
#        133742
#        154140
#        174996
#        178406
#        197027
#        216653
#
# Disc length: 3927 seconds
#
# Revision: 0
# Processed by: cddbd v1.5.2PL0 Copyright (c) Steve Scherf et al.
# Submitted via: ExactAudioCopy v0.95b3
#
DISCID=e10f5510
DTITLE=The Doors  - Perception Box Set - Disc 3
DYEAR=1900
DGENRE=
TTITLE0=Hello I Love You
TTITLE1=Love Street
TTITLE2=Not To Touch The Earth
TTITLE3=Summers Almost Gone
TTITLE4=Wintertime Love
TTITLE5=The Unknown Soldier
TTITLE6=Spanish Caravan
TTITLE7=My Wild Love
TTITLE8=We Could Be So Good Together
TTITLE9=Yes The River Knows
TTITLE10=Five To One
TTITLE11=Albinonis Adagio In G Minor (Bonus Track)
TTITLE12=Not To Touch The Earth (Dialogue Previously Unreleased Bonus 
TTITLE12=Track)
TTITLE13=Not To Touch The Earth (Previously Unreleased Bonus Track Tak
TTITLE13=e 1)
TTITLE14=Not To Touch The Earth (Previously Unreleased Bonus Track Tak
TTITLE14=e 2)
TTITLE15=Celebration Of The Lizard (Bonus Track An Experiment Work In 
TTITLE15=Progress)
EXTD=
EXTT0=
EXTT1=
EXTT2=
EXTT3=
EXTT4=
EXTT5=
EXTT6=
EXTT7=
EXTT8=
EXTT9=
EXTT10=
EXTT11=
EXTT12=
EXTT13=
EXTT14=
EXTT15=
PLAYORDER=
